<svg version="1.1" viewBox="0 0 512 512" style="enable-background:new 0 0 512 512;" xml:space="preserve" xmlns="http://www.w3.org/2000/svg" xmlns:xlink="http://www.w3.org/1999/xlink"><g><path d="M344,98.7c-4-3.9-10.4-3.6-14.3,0.3c-17.6,17.6-32.8,38.8-44.7,62.6c-19.3-2.8-38.8-2.8-58.1,0 c-11.4-23.1-26.5-44.3-44.6-62.6c-3.9-4-10.4-4.2-14.3-0.3c-45.1,44.8-74,112.8-74,189.1c0,70.9,72.5,128.2,162,128.2 c89.4,0,162-57.4,162-128.2C418,211.5,389.1,143.6,344,98.7z M171.6,313.7c-18.8-3.6-34.7-17.2-43.9-36c9.2-18.8,25.1-32.4,43.9-36 V313.7z M191.9,313.7v-72.1c18.7,3.6,34.7,17.2,43.9,36C226.6,296.5,210.6,310.1,191.9,313.7z M320.1,313.7 c-18.8-3.6-34.7-17.2-43.9-36c9.2-18.8,25.1-32.4,43.9-36V313.7z M340.4,313.7v-72.1c18.7,3.6,34.7,17.2,43.9,36 C375.1,296.5,359.1,310.1,340.4,313.7z"/></g></svg>