<svg xmlns="http://www.w3.org/2000/svg" viewBox="0 0 401.52 377.87"><path d="M344.14,370.92l-.39-.32a21.37,21.37,0,0,1,20.26-7,42.77,42.77,0,0,1,5,1.52c1.26.44,2.57.9,3.88,1.24,3.61,1,6.6.8,8.9-.47a15.87,15.87,0,0,0,4.19-3.87c.4-.47.81-.95,1.22-1.4,1.59-1.73,4.06-3.73,6.83-3.41l-.06.5c-2.57-.29-4.89,1.6-6.4,3.24-.41.46-.81.93-1.22,1.4a16.07,16.07,0,0,1-4.32,4c-2.41,1.33-5.53,1.5-9.26.52-1.33-.35-2.65-.81-3.93-1.26a41.75,41.75,0,0,0-5-1.5A20.84,20.84,0,0,0,344.14,370.92Z" transform="translate(-49.24 -93.28)" style="fill:#2a3b77"/><path d="M416.91,324.46c-15.12,5.39-26.65,20.63-22.3,32.83s22.91,16.73,38,11.35,21.08-18.65,16.73-30.85S432,319.08,416.91,324.46Z" transform="translate(-49.24 -93.28)" style="fill:#dd4a4a"/><polygon points="342.57 262.49 344.16 266.95 346.82 263.49 342.57 262.49" style="fill:#c93232"/><path d="M437.51,330.48c-.67,6.31-17.62,4.53-16.95-1.8S438.18,324.15,437.51,330.48Z" transform="translate(-49.24 -93.28)" style="fill:#fff;opacity:0.3"/><path d="M308.59,355.66l-.48-.1a31.19,31.19,0,0,1,21.31-22.9,60.22,60.22,0,0,1,7.52-1.49c1.95-.31,4-.62,5.91-1.08,5.35-1.27,9.13-3.55,11.25-6.8,1.54-2.35,2.16-5.19,2.76-7.93.19-.88.39-1.79.62-2.67.85-3.3,2.64-7.54,6.4-9l.19.47c-3.57,1.42-5.29,5.51-6.11,8.69-.22.87-.42,1.78-.61,2.65-.61,2.79-1.25,5.68-2.83,8.1-2.19,3.36-6.08,5.72-11.56,7-2,.46-4,.78-5.94,1.08a60,60,0,0,0-7.46,1.48A30.7,30.7,0,0,0,308.59,355.66Z" transform="translate(-49.24 -93.28)" style="fill:#2a3b77"/><path d="M370.79,245.34c-15.85,17.41-20.23,45.09-6.19,57.87s41.18,5.83,57-11.58S436,253,422,240.18,386.64,227.94,370.79,245.34Z" transform="translate(-49.24 -93.28)" style="fill:#e8a230"/><polygon points="310.68 209.89 315.83 214.57 316.88 208.25 310.68 209.89" style="fill:#e8a230"/><path d="M402.17,238.78c5-7.82,26.06,5.7,21,13.54S397.12,246.62,402.17,238.78Z" transform="translate(-49.24 -93.28)" style="fill:#fff;opacity:0.3"/><path d="M155.86,370.92a20.84,20.84,0,0,0-19.76-6.79,41.75,41.75,0,0,0-5,1.5c-1.28.45-2.6.91-3.93,1.26-3.73,1-6.85.81-9.26-.52a16.41,16.41,0,0,1-4.33-4c-.4-.47-.8-.94-1.21-1.4-1.51-1.64-3.83-3.53-6.4-3.24l-.06-.5c2.78-.32,5.24,1.68,6.82,3.41.42.45.83.93,1.24,1.4a15.68,15.68,0,0,0,4.18,3.87c2.3,1.27,5.29,1.43,8.9.47,1.31-.34,2.62-.8,3.88-1.24a42.77,42.77,0,0,1,5-1.52,21.36,21.36,0,0,1,20.26,7Z" transform="translate(-49.24 -93.28)" style="fill:#2a3b77"/><path d="M83.09,324.46c15.12,5.39,26.65,20.63,22.3,32.83s-22.91,16.73-38,11.35S46.28,350,50.63,337.79,68,319.08,83.09,324.46Z" transform="translate(-49.24 -93.28)" style="fill:#dd4a4a"/><polygon points="58.95 262.49 57.36 266.95 54.69 263.49 58.95 262.49" style="fill:#c93232"/><path d="M63.29,330.76c.38,6.34,17.39,5.33,17-1S62.9,324.41,63.29,330.76Z" transform="translate(-49.24 -93.28)" style="fill:#fff;opacity:0.3"/><path d="M191.41,355.66a30.7,30.7,0,0,0-21-22.52,60,60,0,0,0-7.46-1.48c-2-.3-4-.62-5.94-1.08-5.48-1.3-9.37-3.66-11.56-7-1.59-2.42-2.22-5.31-2.83-8.1-.19-.87-.39-1.78-.61-2.65-.82-3.18-2.54-7.27-6.11-8.69l.19-.47c3.76,1.5,5.55,5.74,6.4,9,.23.88.43,1.79.62,2.66.6,2.75,1.22,5.59,2.76,7.94,2.12,3.25,5.9,5.53,11.25,6.8,1.95.46,4,.77,5.91,1.08a60.22,60.22,0,0,1,7.52,1.49,31.19,31.19,0,0,1,21.31,22.9Z" transform="translate(-49.24 -93.28)" style="fill:#2a3b77"/><path d="M129.21,245.34c15.85,17.41,20.23,45.09,6.19,57.87s-41.18,5.83-57-11.58S64,253,78,240.18,113.36,227.94,129.21,245.34Z" transform="translate(-49.24 -93.28)" style="fill:#5265a8"/><polygon points="90.83 209.89 85.69 214.57 84.63 208.25 90.83 209.89" style="fill:#5265a8"/><path d="M90.57,240c-1.09,9.25,23.73,12.18,24.82,2.92S91.65,230.78,90.57,240Z" transform="translate(-49.24 -93.28)" style="fill:#fff;opacity:0.3"/><ellipse cx="204.82" cy="366.1" rx="167.44" ry="11.77" style="fill:#ffe3c2"/><path d="M243.72,357.54v-2c20.83,0,33.62-4.35,33.62-7.46,0-1.43-2.69-3.12-7.62-4.53a132.36,132.36,0,0,1-26,2.38A141.6,141.6,0,0,1,224,344.58a2.11,2.11,0,0,1-1.69-2.19,2.14,2.14,0,0,1,1.66-2.26,121.25,121.25,0,0,1,19.8-1.51c9.44,0,19.2,1,26.12,2.89,7.79-1.69,12.39-4,12.39-6.23,0-1.79-3-3.67-8.32-5.22a156.62,156.62,0,0,1-30.19,2.71,167.74,167.74,0,0,1-24.27-1.67,2.32,2.32,0,0,1-.07-4.44,134.25,134.25,0,0,1,24.34-2c10.95,0,22.29,1.16,30.17,3.38,9.52-2,15.16-4.87,15.16-7.56,0-1.82-2.58-3.71-7.2-5.37-10.61,2.42-24.58,3.68-38.13,3.68a188.37,188.37,0,0,1-33.4-2.74,2.09,2.09,0,0,1-1.62-2.13,2.15,2.15,0,0,1,1.51-2.28c8.89-2.24,20.79-3.48,33.51-3.48,14.21,0,29,1.66,38.15,4.82,10.09-2.41,16-5.62,16-8.66,0-5.9-22.23-12.47-54.14-12.47v-2c27.22,0,56.14,5.07,56.14,14.47,0,4.21-5.82,7.56-14.7,10,3.69,1.72,5.89,3.79,5.89,6.19,0,3.76-5.39,6.71-13.49,8.78,4.13,1.61,6.67,3.64,6.67,6,0,3.14-4.3,5.62-10.83,7.4,3.68,1.44,5.94,3.24,5.94,5.4C279.34,354.22,261,357.54,243.72,357.54Zm-19.41-14.93a146.61,146.61,0,0,0,40.62-.19,113.41,113.41,0,0,0-21.21-1.8,119.54,119.54,0,0,0-19.47,1.48A1.25,1.25,0,0,0,224.31,342.61Zm-4.5-13.47a167.34,167.34,0,0,0,23.91,1.63,161.06,161.06,0,0,0,25.44-1.87,128.67,128.67,0,0,0-25.44-2.27,132,132,0,0,0-24,2A1.25,1.25,0,0,0,219.81,329.14Zm23.91-19c-12.56,0-24.29,1.22-33,3.42a.9.9,0,0,0,.06.55,189.76,189.76,0,0,0,33,2.66,181.84,181.84,0,0,0,34.1-2.93C269.78,311.66,257.89,310.13,243.72,310.13Z" transform="translate(-49.24 -93.28)" style="fill:#5265a8"/><rect x="204.82" y="259.87" width="82.25" height="108.42" style="fill:#dd4a4a"/><path d="M331.39,456.65H259V358.07h72.41Zm-69.13-3.28h65.85v-92H262.26Z" transform="translate(-49.24 -93.28)" style="fill:#e8a230"/><ellipse cx="245.94" cy="314.08" rx="14.16" ry="24.97" style="fill:#e8a230"/><rect x="122.57" y="259.87" width="82.25" height="108.42" style="fill:#c93232"/><path d="M249.14,456.65H176.73V358.07h72.41ZM180,453.37h65.85v-92H180Z" transform="translate(-49.24 -93.28)" style="fill:#e8a230"/><circle cx="164.13" cy="314.08" r="4.31" style="fill:#af2323"/><path d="M190.61,431.1H166a1.5,1.5,0,0,1,0-3h23.15V407.36a1.5,1.5,0,0,1,1.5-1.5h22.33a1.5,1.5,0,0,1,0,3H192.11V429.6A1.5,1.5,0,0,1,190.61,431.1Z" transform="translate(-49.24 -93.28)" style="fill:#fffaf3"/><rect x="107" y="332.82" width="23.77" height="7" style="fill:#2a3b77"/><polygon points="312.46 294.34 230.21 294.34 204.82 259.87 287.06 259.87 312.46 294.34" style="fill:#c93232"/><polygon points="97.18 294.34 179.42 294.34 204.82 259.87 122.57 259.87 97.18 294.34" style="fill:#af2323"/><path d="M284.88,128.44c-.85-19-15.45-35.16-35.16-35.16-18.39,0-36,16.17-35.15,35.16S230,163.6,249.72,163.6C268.11,163.6,285.73,147.43,284.88,128.44Z" transform="translate(-49.24 -93.28)" style="fill:#dd4a4a"/><path d="M233.83,142.71c-.6-13.29-10.77-24.52-24.51-24.52-12.83,0-25.11,11.28-24.52,24.52s10.77,24.51,24.52,24.51C222.14,167.22,234.42,155.94,233.83,142.71Z" transform="translate(-49.24 -93.28)" style="fill:#dd4a4a"/><path d="M197.94,160.79c-.52-11.5-9.33-21.23-21.24-21.23-11.11,0-21.75,9.76-21.23,21.23S164.8,182,176.7,182C187.81,182,198.45,172.26,197.94,160.79Z" transform="translate(-49.24 -93.28)" style="fill:#dd4a4a"/><path d="M183.24,232.67c-.52-11.51-9.33-21.24-21.24-21.24-11.11,0-21.75,9.77-21.23,21.24S150.1,253.9,162,253.9C173.11,253.9,183.75,244.14,183.24,232.67Z" transform="translate(-49.24 -93.28)" style="fill:#dd4a4a"/><path d="M182.49,194.94c-.73-16.31-13.22-30.1-30.09-30.1-15.74,0-30.82,13.85-30.1,30.1S135.53,225,152.4,225C168.14,225,183.22,211.19,182.49,194.94Z" transform="translate(-49.24 -93.28)" style="fill:#dd4a4a"/><path d="M317,194.94c.73-16.31,13.23-30.1,30.1-30.1,15.74,0,30.82,13.85,30.09,30.1S363.92,225,347.05,225C331.31,225,316.22,211.19,317,194.94Z" transform="translate(-49.24 -93.28)" style="fill:#dd4a4a"/><path d="M265.62,142.71c.59-13.29,10.77-24.52,24.51-24.52,12.82,0,25.11,11.28,24.51,24.52s-10.77,24.51-24.51,24.51C277.31,167.22,265,155.94,265.62,142.71Z" transform="translate(-49.24 -93.28)" style="fill:#dd4a4a"/><path d="M301.51,160.79c.52-11.5,9.33-21.23,21.24-21.23,11.1,0,21.75,9.76,21.23,21.23S334.65,182,322.75,182C311.64,182,301,172.26,301.51,160.79Z" transform="translate(-49.24 -93.28)" style="fill:#dd4a4a"/><path d="M316.21,232.67c.51-11.51,9.33-21.24,21.23-21.24,11.11,0,21.75,9.77,21.24,21.24s-9.33,21.23-21.24,21.23C326.34,253.9,315.7,244.14,316.21,232.67Z" transform="translate(-49.24 -93.28)" style="fill:#dd4a4a"/><circle cx="202.31" cy="128.49" r="82.34" style="fill:#e8a230"/><circle cx="154.48" cy="126.36" r="37.61" style="fill:#fff"/><path d="M203.72,261.36a41.72,41.72,0,1,1,41.72-41.72A41.77,41.77,0,0,1,203.72,261.36Zm0-75.23a33.51,33.51,0,1,0,33.51,33.51A33.54,33.54,0,0,0,203.72,186.13Z" transform="translate(-49.24 -93.28)" style="fill:#5265a8"/><path d="M188.92,193.39c17.52,0,17.55,27.22,0,27.22S171.38,193.39,188.92,193.39Z" transform="translate(-49.24 -93.28)" style="fill:#2a3b77"/><path d="M184.77,198.27c4.86,0,4.87,7.56,0,7.56S179.89,198.27,184.77,198.27Z" transform="translate(-49.24 -93.28)" style="fill:#fff"/><path d="M260.19,223.43c-6.35-2.65-11.91-2.69-17-.12L239.49,216c7.26-3.67,15.29-3.71,23.86-.12Z" transform="translate(-49.24 -93.28)" style="fill:#5265a8"/><circle cx="250.15" cy="126.36" r="37.62" style="fill:#fff"/><path d="M299.39,261.36a41.72,41.72,0,1,1,41.72-41.72A41.76,41.76,0,0,1,299.39,261.36Zm0-75.23a33.51,33.51,0,1,0,33.51,33.51A33.54,33.54,0,0,0,299.39,186.13Z" transform="translate(-49.24 -93.28)" style="fill:#5265a8"/><path d="M314.1,215.73c17.52,0,17.55,27.22,0,27.22S296.56,215.73,314.1,215.73Z" transform="translate(-49.24 -93.28)" style="fill:#2a3b77"/><path d="M309.94,220.61c4.87,0,4.88,7.56,0,7.56S305.07,220.61,309.94,220.61Z" transform="translate(-49.24 -93.28)" style="fill:#fff"/><circle cx="202.31" cy="154.4" r="20.95" style="fill:#dd4a4a"/><path d="M259.58,232.67c-7.54,0-7.55,11.72,0,11.72S267.14,232.67,259.58,232.67Z" transform="translate(-49.24 -93.28)" style="fill:#fff;opacity:0.5"/><path d="M296.42,270.34c0,9.76-20.09,29.14-44.87,29.14s-44.86-19.38-44.86-29.14,20.09,2.17,44.86,2.17S296.42,260.58,296.42,270.34Z" transform="translate(-49.24 -93.28)" style="fill:#af2323"/><rect x="185.84" y="178.75" width="14.64" height="14.64" rx="2.29" style="fill:#fff"/><rect x="253.39" y="272.04" width="14.64" height="14.64" rx="2.29" transform="translate(472.17 465.43) rotate(180)" style="fill:#fff"/><path d="M251.55,303c-25.77,0-48.38-20.36-48.38-32.66a6.92,6.92,0,0,1,2.48-5.68c3.62-2.89,9.54-1.56,18.49.47,7.63,1.72,17.13,3.86,27.41,3.86s19.79-2.14,27.42-3.86c8.95-2,14.87-3.36,18.48-.47a6.89,6.89,0,0,1,2.49,5.68C299.94,282.64,277.32,303,251.55,303Zm-41.34-32.89c0,.06,0,.14,0,.23,0,7.43,17.9,25.62,41.35,25.62s41.35-18.19,41.35-25.62a1.55,1.55,0,0,0,0-.23c-1.75-.52-7.61.8-12.37,1.88-8,1.8-17.89,4-29,4s-21-2.24-29-4C217.83,270.91,212,269.59,210.21,270.11Z" transform="translate(-49.24 -93.28)" style="fill:#dd4a4a"/><path d="M295.92,157.52c-11.5,0-11.52,17.86,0,17.86S307.43,157.52,295.92,157.52Z" transform="translate(-49.24 -93.28)" style="fill:#fff;opacity:0.3"/><path d="M272.48,142.44c-.55-12.33-10-22.76-22.76-22.76-11.9,0-23.3,10.47-22.75,22.76s10,22.76,22.75,22.76C261.63,165.2,273,154.73,272.48,142.44Z" transform="translate(-49.24 -93.28)" style="fill:#dd4a4a"/><path d="M233.74,142.71c-.36-8.13-6.59-15-15-15-7.85,0-15.37,6.9-15,15s6.6,15,15,15C226.58,157.71,234.1,150.81,233.74,142.71Z" transform="translate(-49.24 -93.28)" style="fill:#dd4a4a"/><path d="M265.71,142.71c.36-8.13,6.59-15,15-15,7.85,0,15.37,6.9,15,15s-6.59,15-15,15C272.86,157.71,265.34,150.81,265.71,142.71Z" transform="translate(-49.24 -93.28)" style="fill:#dd4a4a"/><path d="M105.94,198.28c-7.58,6.67-11.49-6.67-19.08,0v-3.93c7.59-6.67,11.5,6.67,19.08,0Z" transform="translate(-49.24 -93.28)" style="fill:#5265a8"/><path d="M84.9,433.72c-20-2.59-5.14-26.05-25.15-28.65l5.89-5.18c20,2.6,5.15,26.06,25.16,28.65Z" transform="translate(-49.24 -93.28)" style="fill:#5265a8"/><path d="M445.72,381.42c-5.19,4.56-7.87-4.57-13.06,0v-2.69c5.19-4.57,7.87,4.56,13.06,0Z" transform="translate(-49.24 -93.28)" style="fill:#5265a8"/><path d="M428,195.64c-20.31-1.75-6.33-26.07-26.64-27.81l5.73-5.49c20.3,1.74,6.33,26.07,26.64,27.81Z" transform="translate(-49.24 -93.28)" style="fill:#5265a8"/><path d="M103,377.34c-1.62,7.67-5.46,11-13.28,11.61-.11-1.5-.17-2.25-.28-3.75,5.82-.44,8.67-2.93,9.88-8.64Z" transform="translate(-49.24 -93.28)" style="fill:#e8a230"/><path d="M420.31,430.3c-5.63,9.9-12.42,12.86-23.5,10.22.5-2.13.76-3.19,1.26-5.32,8.25,2,13.3-.23,17.48-7.6Z" transform="translate(-49.24 -93.28)" style="fill:#e8a230"/><path d="M388.45,192.57c-6.09-1.31-8.74-4.36-9.19-10.57l3-.22c.33,4.62,2.31,6.9,6.84,7.87C388.82,190.82,388.7,191.4,388.45,192.57Z" transform="translate(-49.24 -93.28)" style="fill:#e8a230"/><path d="M68.44,127.24c-7.87-1.69-11.3-5.64-11.87-13.67l3.85-.27c.43,6,3,8.91,8.83,10.16C68.93,125,68.77,125.73,68.44,127.24Z" transform="translate(-49.24 -93.28)" style="fill:#e8a230"/><path d="M81.67,168.41l1.21,1.32-.06.06a9.93,9.93,0,0,1,.94,1.72l0,0v0a8.53,8.53,0,0,0-1.87-.79,12.57,12.57,0,0,0-7.65.1,12.16,12.16,0,0,0-4.13,2.34,14.11,14.11,0,0,0-3.81,14.67L61.88,183a14.12,14.12,0,0,1,3.8-14.68,12.54,12.54,0,0,1,11.8-2.44,10.53,10.53,0,0,1,3,1.5,8.73,8.73,0,0,1,1.17,1Z" transform="translate(-49.24 -93.28)" style="fill:#c93232"/><path d="M98,163.59l.19.21a9.61,9.61,0,0,1,1.75,2.68,12.14,12.14,0,0,0-6.68-1.67,16.05,16.05,0,0,0-10.36,4.92l-1.21-1.32v0a8.73,8.73,0,0,0-1.17-1,10.53,10.53,0,0,0-3-1.5A16.59,16.59,0,0,1,88.8,160,12.22,12.22,0,0,1,98,163.59Z" transform="translate(-49.24 -93.28)" style="fill:#af2323"/><path d="M81.9,170.76a19.27,19.27,0,0,0-1.6,2,12.19,12.19,0,0,0-2.42,6.48,7.25,7.25,0,0,0,.08,1.24,4.42,4.42,0,0,1-1.22-.33,4.87,4.87,0,0,1-1.47-1l-.34-.37a.1.1,0,0,1,0-.07,6.62,6.62,0,0,1-1.44-4.29,9.32,9.32,0,0,1,.8-3.58A12.57,12.57,0,0,1,81.9,170.76Z" transform="translate(-49.24 -93.28)" style="fill:#af2323"/><path d="M74.89,178.73a.1.1,0,0,0,0,.07l-.06-.07Z" transform="translate(-49.24 -93.28)" style="fill:#dd4a4a"/><path d="M82.88,169.73l3.55,3.86c.09.11.19.21.28.33a8,8,0,0,1,1.93,6.83c-.72,3.2-4.47,5.58-7.46,4.27a4.62,4.62,0,0,1-1.53-1.08l-4.38-4.77a4.87,4.87,0,0,0,1.47,1,4.42,4.42,0,0,0,1.22.33h0a6.07,6.07,0,0,0,6.24-4.59,7.22,7.22,0,0,0-.44-4.37,0,0,0,0,1,0,0l0,0a9.93,9.93,0,0,0-.94-1.72Z" transform="translate(-49.24 -93.28)" style="fill:#dd4a4a"/><path d="M86.43,173.59l.3.33h0C86.62,173.8,86.52,173.7,86.43,173.59Z" transform="translate(-49.24 -93.28)" style="fill:#dd4a4a"/><path d="M98.17,163.8l4.44,4.84a2.69,2.69,0,0,1,.3.37h0a9.17,9.17,0,0,1,2,4.21l-4.43-4.83a9.17,9.17,0,0,0-.56-1.87l0-.05A9.61,9.61,0,0,0,98.17,163.8Z" transform="translate(-49.24 -93.28)" style="fill:#dd4a4a"/><path d="M102.61,168.64l.35.38h0A2.69,2.69,0,0,0,102.61,168.64Z" transform="translate(-49.24 -93.28)" style="fill:#dd4a4a"/><path d="M429.64,131.39l1,.05s0,0,0,.05a5,5,0,0,1,1.06.31h0a5,5,0,0,0-1.07.43,7.09,7.09,0,0,0-3,3.11,6.92,6.92,0,0,0-.72,2.59,8,8,0,0,0,4.36,7.39l-3.71-.15a8,8,0,0,1-4.36-7.39,7.09,7.09,0,0,1,3.74-5.71,5.78,5.78,0,0,1,1.81-.61,4.29,4.29,0,0,1,.88-.06Z" transform="translate(-49.24 -93.28)" style="fill:#c93232"/><path d="M434.24,122.93h.15a5.1,5.1,0,0,1,1.78.37,6.88,6.88,0,0,0-3.34,2,9.15,9.15,0,0,0-2.17,6.13l-1-.05,0,0a4.29,4.29,0,0,0-.88.06,5.78,5.78,0,0,0-1.81.61,9.36,9.36,0,0,1,2.15-6.92A6.87,6.87,0,0,1,434.24,122.93Z" transform="translate(-49.24 -93.28)" style="fill:#af2323"/><path d="M430.68,132.24a10.2,10.2,0,0,0,.17,1.46,6.91,6.91,0,0,0,1.63,3.56,4.6,4.6,0,0,0,.53.46,2.52,2.52,0,0,1-.62.36,2.84,2.84,0,0,1-1,.18h-.33a3.75,3.75,0,0,1-2.3-1.14,5.6,5.6,0,0,1-1.11-1.75A7.09,7.09,0,0,1,430.68,132.24Z" transform="translate(-49.24 -93.28)" style="fill:#af2323"/><path d="M431.07,138.24h0Z" transform="translate(-49.24 -93.28)" style="fill:#dd4a4a"/><path d="M430.66,131.44l3,.12.25,0a4.51,4.51,0,0,1,3.51,2c1,1.57.45,4-1.27,4.69a2.71,2.71,0,0,1-1.05.19l-3.66-.16a2.84,2.84,0,0,0,1-.18,2.52,2.52,0,0,0,.62-.36h0a3.45,3.45,0,0,0,.65-4.34,4.06,4.06,0,0,0-1.92-1.57h0a5,5,0,0,0-1.06-.31S430.65,131.45,430.66,131.44Z" transform="translate(-49.24 -93.28)" style="fill:#dd4a4a"/><path d="M433.62,131.56h.25Z" transform="translate(-49.24 -93.28)" style="fill:#dd4a4a"/><path d="M434.39,122.94l3.72.15a2.23,2.23,0,0,1,.27,0h0a5,5,0,0,1,2.5.87l-3.7-.16a5.42,5.42,0,0,0-1-.52h0A5.1,5.1,0,0,0,434.39,122.94Z" transform="translate(-49.24 -93.28)" style="fill:#dd4a4a"/><path d="M438.11,123.09h.3l0,0h0A2.23,2.23,0,0,0,438.11,123.09Z" transform="translate(-49.24 -93.28)" style="fill:#dd4a4a"/><path d="M392.07,398l.87-1.48a.07.07,0,0,0,.07,0,9.7,9.7,0,0,1,1.3-1.34l0,0h0a8.37,8.37,0,0,0-.19,1.93,11.94,11.94,0,0,0,2.24,6.94,11.47,11.47,0,0,0,3.29,3.11,13.43,13.43,0,0,0,14.42-.65l-3.16,5.39a13.45,13.45,0,0,1-14.43.66A12,12,0,0,1,391,402.5a10.08,10.08,0,0,1,.52-3.17,7.41,7.41,0,0,1,.6-1.35Z" transform="translate(-49.24 -93.28)" style="fill:#c93232"/><path d="M383.12,384.48l.13-.23a9.23,9.23,0,0,1,1.95-2.35,11.51,11.51,0,0,0,.35,6.55,15.26,15.26,0,0,0,7.39,8.06l-.87,1.48h0a7.41,7.41,0,0,0-.6,1.35,10.08,10.08,0,0,0-.52,3.17,15.74,15.74,0,0,1-8.59-8.65A11.6,11.6,0,0,1,383.12,384.48Z" transform="translate(-49.24 -93.28)" style="fill:#af2323"/><path d="M394.15,397.12a17.35,17.35,0,0,0,2.3.89,11.57,11.57,0,0,0,6.58.38,6.09,6.09,0,0,0,1.1-.42,4.07,4.07,0,0,1,0,1.21,4.71,4.71,0,0,1-.5,1.62l-.25.41s0,.05-.05.06a6.26,6.26,0,0,1-3.5,2.51,9.06,9.06,0,0,1-3.48.28A11.94,11.94,0,0,1,394.15,397.12Z" transform="translate(-49.24 -93.28)" style="fill:#af2323"/><path d="M403.37,401.27s0,0,.05-.06l0,.08Z" transform="translate(-49.24 -93.28)" style="fill:#dd4a4a"/><path d="M392.94,396.51l2.52-4.31.22-.35a7.64,7.64,0,0,1,5.68-3.68c3.12-.23,6.33,2.52,6,5.61a4.54,4.54,0,0,1-.55,1.69l-3.12,5.33a4.71,4.71,0,0,0,.5-1.62,4.07,4.07,0,0,0,0-1.21h0a5.79,5.79,0,0,0-5.93-4.4,6.91,6.91,0,0,0-3.86,1.63,0,0,0,0,1,0,0l0,0a9.7,9.7,0,0,0-1.3,1.34A.07.07,0,0,1,392.94,396.51Z" transform="translate(-49.24 -93.28)" style="fill:#dd4a4a"/><path d="M395.46,392.2l.21-.36h0Z" transform="translate(-49.24 -93.28)" style="fill:#dd4a4a"/><path d="M383.25,384.25l3.16-5.4a2.33,2.33,0,0,1,.26-.38h0a8.77,8.77,0,0,1,3.27-3l-3.16,5.39a8.57,8.57,0,0,0-1.55,1l0,0A9.23,9.23,0,0,0,383.25,384.25Z" transform="translate(-49.24 -93.28)" style="fill:#dd4a4a"/><path d="M386.41,378.85l.25-.43v0h0A2.33,2.33,0,0,0,386.41,378.85Z" transform="translate(-49.24 -93.28)" style="fill:#dd4a4a"/><path d="M125.91,419.56l-.31-1.32a.07.07,0,0,0,.06,0,7.31,7.31,0,0,1,0-1.48v0a6.25,6.25,0,0,0,.95,1.22,9.47,9.47,0,0,0,5.09,2.76,9.09,9.09,0,0,0,3.6,0,10.67,10.67,0,0,0,7.94-8.28l1.14,4.83a10.69,10.69,0,0,1-7.94,8.3,9.52,9.52,0,0,1-8.7-2.76,7.66,7.66,0,0,1-1.44-2.11,5.58,5.58,0,0,1-.4-1.1Z" transform="translate(-49.24 -93.28)" style="fill:#c93232"/><path d="M113.35,416.71l0-.2a7.39,7.39,0,0,1-.17-2.43,9.23,9.23,0,0,0,3.8,3.58,12.21,12.21,0,0,0,8.67.58l.31,1.32v0a5.58,5.58,0,0,0,.4,1.1,7.66,7.66,0,0,0,1.44,2.11,12.51,12.51,0,0,1-9.69-.25A9.25,9.25,0,0,1,113.35,416.71Z" transform="translate(-49.24 -93.28)" style="fill:#af2323"/><path d="M126.63,417.92a14.36,14.36,0,0,0,1.81-.75,9.17,9.17,0,0,0,4-3.39,4.7,4.7,0,0,0,.4-.85,3.65,3.65,0,0,1,.69.67,3.61,3.61,0,0,1,.6,1.21l.09.38v.06a5,5,0,0,1-.64,3.36,7,7,0,0,1-1.85,2.07A9.47,9.47,0,0,1,126.63,417.92Z" transform="translate(-49.24 -93.28)" style="fill:#af2323"/><path d="M134.21,415.25v0Z" transform="translate(-49.24 -93.28)" style="fill:#dd4a4a"/><path d="M125.6,418.24l-.92-3.87a3,3,0,0,1-.06-.32,6.06,6.06,0,0,1,1.24-5.23c1.67-1.84,5-2,6.51-.06A3.54,3.54,0,0,1,133,410l1.13,4.77a3.61,3.61,0,0,0-.6-1.21,3.65,3.65,0,0,0-.69-.67h0a4.61,4.61,0,0,0-5.82.73,5.48,5.48,0,0,0-1.33,3.05h0v0a7.31,7.31,0,0,0,0,1.48A.07.07,0,0,1,125.6,418.24Z" transform="translate(-49.24 -93.28)" style="fill:#dd4a4a"/><path d="M124.68,414.37l-.08-.32h0A3,3,0,0,0,124.68,414.37Z" transform="translate(-49.24 -93.28)" style="fill:#dd4a4a"/><path d="M113.3,416.51l-1.15-4.84a2.46,2.46,0,0,1-.06-.36h0a6.87,6.87,0,0,1,.21-3.54l1.14,4.83a7.13,7.13,0,0,0-.32,1.44v.05A7.39,7.39,0,0,0,113.3,416.51Z" transform="translate(-49.24 -93.28)" style="fill:#dd4a4a"/><path d="M112.15,411.67l-.09-.39,0,0h0A2.46,2.46,0,0,0,112.15,411.67Z" transform="translate(-49.24 -93.28)" style="fill:#dd4a4a"/></svg>