<svg xmlns="http://www.w3.org/2000/svg" xmlns:xlink="http://www.w3.org/1999/xlink" viewBox="0 0 360 360" style="enable-background:new 0 0 360 360;" xml:space="preserve">
	<g>
		<path fill="#CF7B39" d="M225.7,475.2c-15.6,2.6-33.6,8.6-45.6,0.6c-58-35-96-97-95-166c0-58,36-118,95-128c-51,28-86,84-75,141
			c14,68,65,119,123.8,151.8L225.7,475.2z"/>
		<path fill="#1E3A46" d="M244.3,471.7c-70.2-36.9-138.2-102.9-132.2-188.9c3-43,34-76,67-101c-41,42-57,104-29,158
			c32,61,95,94,158,110.3C287.7,459.7,266.3,466.9,244.3,471.7z"/>
		<path fill="#A33A44" d="M133.3,474.9c-44.2-7-97.2-17-117.2-53c-39-68-25-163,40-219c34-30,83-31,124-21c-41,9-82,30-101,70
			c-31,66-7,139,32.2,194.7C118.1,456.4,125.4,465.8,133.3,474.9z"/>
		<path fill="#A33A44" d="M365.3,414.6c-87.2,0.2-193.2-39.8-208.2-137.8c-6-34,7-66,23-95c-11,73,38,142,113,154c55,9,107-4,156-25
			c-9,20-23,38-35.4,55.7C399.4,384.3,383.2,400.5,365.3,414.6z"/>
		<path fill="#1E3A46" d="M-39.9,381.2c-15-16.4-36-35.4-35-55.4c3-72,47-145,118-174c47-19,100-2,137,30c-45-23-100-29-144,4
			c-51,39-73,100-75.5,159.5C-40.2,357.3-40.4,369.2-39.9,381.2z"/>
		<path fill="#CF7B39" d="M465.6,268.9c-52.6,34-113.6,57-178.6,45s-106-69-107-132c11,56,52,106,112,113c70,8,134-26,183.7-69.9
			C473.5,239.8,470.1,254.5,465.6,268.9z"/>
		<path fill="#CF7B39" d="M-89.3,307.6c-5.7-13.8-17.7-29.8-13.7-42.8c21-59,64-111,124-135c59-24,123,2,159,51c-33-29-74-52-120-43
			c-71,14-116,73-138.3,135.6C-82.5,284.6-86.2,296-89.3,307.6z"/>
		<path fill="#1E3A46" d="M478.3,202.5c-55.2,59.3-142.2,105.3-223.2,73.3c-39-16-63-55-75-94c19,32,46,63,85,72
			c92,22,168-46,210.7-118.4C479.1,157.6,479.9,180.1,478.3,202.5z"/>
		<path fill="#A33A44" d="M180.1,181.6c-28-56.8-91-91.8-155-73.8c-62,17-107,63-140,115c-6-44-12-96,15-128c36-41,97-53,153-50
			C125.1,48.8,181.1,110.8,180.1,181.6z"/>
		<path fill="#A33A44" d="M180.1,181.6c49,24.2,112,27.2,155-13.8c53-49,68-124,63-192c31,33,67,74,61,116c-15,93-121,181-219.6,139
			C198.9,209,180.1,181.6,180.1,181.6z"/>
		<path fill="#1E3A46" d="M180.1,181.6c5-27.8,4-56.8-6-83.8c-39-97-167-102-252-67c11-19,22-45,41-50c89-25,208,10,229,114
			C198.1,124.8,192.1,154.8,180.1,181.6C178.5,180.5,181.8,182.3,180.1,181.6z"/>
		<path fill="#CF7B39" d="M180.1,181.6c41,5.2,86,3.2,118-26.8c65-61,61-158,30-234c65,26,48,110,34,166c-13,50-53,94-105.1,102.1
			C211.1,193.7,180.1,181.6,180.1,181.6z"/>
		<path fill="#CF7B39" d="M180.1,181.6c14-26.8,23-57.8,18-88.8c-16-102-131-139-221-131c11-11,23-25,35-25c91-3,202,60,199,163
			C210.1,128.8,198.1,157.8,180.1,181.6C179.2,180.7,181,182.4,180.1,181.6z"/>
		<path fill="#1E3A46" d="M180.1,181.6c35-5.8,72-17.8,96-47.8c59-77,24-179-31-245c22,4,49,8,61,24c54,81,50,214-49.4,258.9
			C213,186.5,180.1,181.6,180.1,181.6z"/>
		<path fill="#A33A44" d="M180.1,181.6c29-31.8,52-71.8,44-117.8c-16-86-96-134-174-152c40-20,89-42,126-24c80,38,132,148,81,235
			C240.1,151.8,210.1,168.8,180.1,181.6C179.3,179.1,181.4,183.6,180.1,181.6z"/>
	</g>
</svg>